<svg width="18" height="18" viewBox="0 0 18 18" fill="none" xmlns="http://www.w3.org/2000/svg">
<path fill-rule="evenodd" clip-rule="evenodd" d="M3.64464 12.1794C3.22295 12.1652 2.80088 12.1928 2.38464 12.2619C2.20562 12.2564 2.02664 12.274 1.85214 12.3144C1.7906 12.3356 1.7345 12.3701 1.68783 12.4155C1.64116 12.4609 1.60507 12.516 1.58214 12.5769C1.43017 13.0924 1.37174 13.6309 1.40964 14.1669C1.45464 15.3519 1.71714 16.7619 1.79214 17.4894C1.75153 17.5066 1.71736 17.5361 1.69448 17.5738C1.6716 17.6115 1.66116 17.6554 1.66464 17.6994C1.66832 17.7281 1.67768 17.7557 1.69217 17.7808C1.70666 17.8058 1.72599 17.8276 1.74904 17.8451C1.77208 17.8626 1.79838 17.8753 1.82638 17.8824C1.85439 17.8896 1.88354 17.8911 1.91214 17.8869C2.14464 17.8869 2.35464 17.9769 2.57964 17.9919C2.67449 17.9994 2.76979 17.9994 2.86464 17.9919C2.95825 17.9848 3.05109 17.9698 3.14214 17.9469C3.36714 17.9019 3.56964 17.8419 3.78714 17.7819H3.83964C3.87215 17.7829 3.90453 17.7775 3.93494 17.766C3.96536 17.7544 3.9932 17.737 4.01688 17.7148C4.04056 17.6925 4.05962 17.6657 4.07296 17.6361C4.08631 17.6064 4.09367 17.5744 4.09464 17.5419C4.14714 16.8294 4.19964 16.1169 4.22964 15.4044C4.22964 14.9319 4.27464 14.4519 4.28214 13.9719C4.28214 13.7994 4.33464 13.3719 4.32714 13.0419C4.32902 12.8414 4.28273 12.6433 4.19214 12.4644C4.12633 12.3808 4.04347 12.3121 3.94907 12.263C3.85467 12.2138 3.7509 12.1853 3.64464 12.1794ZM3.10464 17.1744C3.00729 17.1669 2.9095 17.1669 2.81214 17.1744C2.71365 17.1821 2.61588 17.1971 2.51964 17.2194C2.41968 17.244 2.32186 17.2766 2.22714 17.3169C2.22714 16.6644 2.13714 15.6219 2.13714 14.6619C2.12156 14.1587 2.16435 13.6553 2.26464 13.1619H2.42214C3.74964 13.1019 3.50964 12.8544 3.53964 14.0844C3.53964 14.5569 3.58464 15.0219 3.59214 15.4944V17.3244C3.43464 17.2494 3.27714 17.1894 3.10464 17.1744Z" fill="#96999C"/>
<path fill-rule="evenodd" clip-rule="evenodd" d="M8.42029 10.0945C8.35664 10.0044 8.2739 9.92945 8.17797 9.87501C8.08204 9.82056 7.97528 9.78794 7.86529 9.77948C7.44367 9.76908 7.02196 9.79669 6.60529 9.86198C6.42668 9.85723 6.24808 9.87233 6.07279 9.90698C5.94935 9.95454 5.84963 10.0489 5.79529 10.1695C5.62385 10.9318 5.56573 11.7152 5.62279 12.4945C5.67529 14.347 5.95279 16.717 6.01279 17.4895C5.97219 17.5067 5.93802 17.5362 5.91513 17.5739C5.89225 17.6116 5.88181 17.6555 5.88529 17.6995C5.88897 17.7282 5.89833 17.7558 5.91282 17.7808C5.92731 17.8058 5.94664 17.8277 5.96969 17.8452C5.99273 17.8626 6.01903 17.8753 6.04703 17.8825C6.07504 17.8897 6.10419 17.8912 6.13279 17.887C6.36529 17.887 6.57529 17.977 6.80029 17.992C6.89515 17.9995 6.99044 17.9995 7.08529 17.992C7.17891 17.9849 7.27174 17.9698 7.36279 17.947C7.58779 17.902 7.79029 17.842 8.00779 17.782H8.06029C8.0928 17.783 8.12519 17.7776 8.1556 17.766C8.18601 17.7545 8.21385 17.7371 8.23753 17.7148C8.26121 17.6925 8.28027 17.6658 8.29361 17.6361C8.30696 17.6065 8.31432 17.5745 8.31529 17.542C8.36029 16.8445 8.42029 15.337 8.46529 13.9645C8.50279 12.982 8.52529 12.067 8.52529 11.572C8.52529 11.3695 8.57029 10.822 8.52529 10.492C8.51895 10.3535 8.48315 10.218 8.42029 10.0945ZM7.32529 17.1745C7.22794 17.167 7.13015 17.167 7.03279 17.1745C6.93431 17.1821 6.83653 17.1972 6.74029 17.2195C6.64033 17.2441 6.54251 17.2767 6.44779 17.317C6.44779 16.402 6.34279 14.227 6.37279 12.502C6.36508 11.9119 6.40774 11.3223 6.50029 10.7395H6.64279C7.95529 10.687 7.73779 10.432 7.73779 11.662C7.73779 12.2545 7.79029 13.4395 7.80529 14.662V17.3395C7.66279 17.2495 7.49779 17.1895 7.32529 17.1745Z" fill="#96999C"/>
<path fill-rule="evenodd" clip-rule="evenodd" d="M12.09 12.1794C11.6683 12.1652 11.2462 12.1928 10.83 12.2619C10.6509 12.2564 10.4719 12.274 10.2975 12.3144C10.2359 12.3356 10.1798 12.3701 10.1331 12.4155C10.0865 12.4609 10.0504 12.516 10.0275 12.5769C9.87548 13.0924 9.81706 13.6309 9.85496 14.1669C9.89996 15.3519 10.1625 16.7619 10.2375 17.4894C10.1961 17.5056 10.1613 17.5349 10.1382 17.5729C10.1152 17.6108 10.1053 17.6553 10.11 17.6994C10.1136 17.7281 10.123 17.7557 10.1375 17.7808C10.152 17.8058 10.1713 17.8276 10.1943 17.8451C10.2174 17.8626 10.2437 17.8753 10.2717 17.8824C10.2997 17.8896 10.3289 17.8911 10.3575 17.8869C10.59 17.8869 10.7925 17.9769 11.025 17.9919C11.1198 17.9994 11.2151 17.9994 11.31 17.9919C11.4035 17.9842 11.4963 17.9692 11.5875 17.9469C11.8125 17.9019 12.015 17.8419 12.2325 17.7819H12.285C12.3175 17.7829 12.3498 17.7775 12.3803 17.766C12.4107 17.7544 12.4385 17.737 12.4622 17.7148C12.4859 17.6925 12.5049 17.6657 12.5183 17.6361C12.5316 17.6064 12.539 17.5744 12.54 17.5419C12.5925 16.8294 12.645 16.1169 12.675 15.4044C12.675 14.9319 12.72 14.4519 12.7275 13.9719C12.7275 13.7994 12.78 13.3719 12.765 13.0419C12.7689 12.842 12.7252 12.6441 12.6375 12.4644C12.5716 12.3808 12.4888 12.3121 12.3944 12.263C12.3 12.2138 12.1962 12.1853 12.09 12.1794ZM11.55 17.1744C11.4501 17.1669 11.3498 17.1669 11.25 17.1744C11.1539 17.1821 11.0587 17.1971 10.965 17.2194C10.865 17.244 10.7672 17.2766 10.6725 17.3169C10.6725 16.6644 10.575 15.6219 10.5825 14.6619C10.5669 14.1587 10.6097 13.6553 10.71 13.1619H10.8675C12.195 13.1019 11.94 12.8394 11.985 14.0844C11.985 14.5569 12.03 15.0219 12.0375 15.4944V17.3244C11.88 17.2494 11.7225 17.1894 11.55 17.1744Z" fill="#96999C"/>
<path fill-rule="evenodd" clip-rule="evenodd" d="M16.9852 7.61193C16.9786 7.46209 16.9375 7.3158 16.8652 7.18443C16.8015 7.09434 16.7188 7.0194 16.6228 6.96495C16.5269 6.91051 16.4201 6.87789 16.3102 6.86943C15.8885 6.85873 15.4668 6.88635 15.0502 6.95193C14.8715 6.94718 14.693 6.96227 14.5177 6.99693C14.4547 7.01935 14.3974 7.05508 14.3495 7.10167C14.3016 7.14826 14.2643 7.20463 14.2402 7.26693C14.0494 8.31799 13.9889 9.38857 14.0602 10.4544C14.1202 13.1244 14.3977 16.6344 14.4577 17.4894C14.4156 17.5045 14.3799 17.5336 14.3567 17.5718C14.3335 17.6101 14.3241 17.6551 14.3302 17.6994C14.3377 17.7559 14.367 17.8071 14.4119 17.8422C14.4567 17.8773 14.5136 17.8933 14.5702 17.8869C14.8102 17.8869 15.0127 17.9769 15.2452 17.9919C15.34 17.9994 15.4353 17.9994 15.5302 17.9919C15.6237 17.9842 15.7165 17.9692 15.8077 17.9469C16.0327 17.9019 16.2352 17.8419 16.4527 17.7819H16.5052C16.5377 17.7829 16.5701 17.7775 16.6005 17.766C16.6309 17.7545 16.6587 17.7371 16.6824 17.7148C16.7061 17.6925 16.7251 17.6657 16.7385 17.6361C16.7518 17.6064 16.7592 17.5744 16.7602 17.5419C16.7602 16.8594 16.8727 14.3994 16.9177 12.2169C16.9552 10.6194 16.9777 9.16443 16.9777 8.66193C16.9985 8.3123 17.001 7.96182 16.9852 7.61193ZM15.7477 17.1744C15.6478 17.167 15.5475 17.167 15.4477 17.1744C15.3492 17.1821 15.2514 17.1971 15.1552 17.2194C15.058 17.2452 14.9627 17.2777 14.8702 17.3169C14.8702 16.2369 14.7727 12.9744 14.8027 10.4694C14.7906 9.58764 14.8332 8.70595 14.9302 7.82943H15.0577C16.3852 7.77693 16.1602 7.58193 16.1452 8.75193C16.1452 9.43443 16.2052 11.8869 16.2277 14.0619V17.3019C16.1002 17.2494 15.9427 17.1894 15.7477 17.1744Z" fill="#96999C"/>
<path fill-rule="evenodd" clip-rule="evenodd" d="M14.7512 2.61774C14.9397 2.72021 15.1517 2.7719 15.3662 2.76774C15.4907 2.7826 15.6166 2.7826 15.7412 2.76774C15.9034 2.72094 16.0615 2.66074 16.2137 2.58774C16.2469 2.57373 16.2763 2.55221 16.2997 2.52488C16.3232 2.49755 16.3399 2.46515 16.3487 2.43024C16.6142 2.29761 16.818 2.06727 16.9173 1.78758C17.0166 1.50788 17.0036 1.2006 16.8812 0.93024C16.8262 0.763704 16.7369 0.610567 16.619 0.480744C16.5011 0.35092 16.3572 0.247304 16.1967 0.176604C16.0363 0.105903 15.8627 0.0696941 15.6873 0.0703205C15.512 0.0709468 15.3387 0.108395 15.1787 0.18024C14.9308 0.311699 14.7175 0.499726 14.5559 0.729069C14.3943 0.958412 14.2891 1.22261 14.2487 1.50024C14.2319 1.73249 14.2759 1.9651 14.3762 2.17524C14.009 2.92338 13.7369 3.71453 13.5662 4.53024C13.4837 4.86024 13.4012 5.19024 13.3037 5.50524C13.2062 5.82024 13.1687 5.91774 13.0787 6.10524C12.8888 6.55953 12.5608 6.94259 12.1412 7.20024C11.966 7.03209 11.7442 6.92068 11.5047 6.88054C11.2652 6.8404 11.0191 6.8734 10.7987 6.97524C10.7341 7.01085 10.6737 7.05362 10.6187 7.10274C10.4162 6.75024 10.2737 6.39774 10.1012 6.05274C9.95724 5.78599 9.78635 5.53468 9.59119 5.30274C9.23107 4.89943 8.76646 4.60353 8.24869 4.44774C8.3478 4.27758 8.40614 4.08678 8.41916 3.8903C8.43217 3.69381 8.39949 3.49698 8.32369 3.31524C8.26872 3.1487 8.1794 2.99557 8.06149 2.86574C7.94359 2.73592 7.79973 2.6323 7.63924 2.5616C7.47875 2.4909 7.3052 2.45469 7.12983 2.45532C6.95446 2.45595 6.78117 2.49339 6.62119 2.56524C6.35046 2.69835 6.11736 2.8971 5.94313 3.14339C5.7689 3.38967 5.65908 3.67564 5.62369 3.97524C5.61589 4.11923 5.63108 4.26353 5.66869 4.40274H5.60869C5.15663 4.58073 4.73816 4.83435 4.37119 5.15274C4.21307 5.27839 4.06511 5.41632 3.92869 5.56524C3.79556 5.71351 3.67039 5.86872 3.55369 6.03024C3.32869 6.35274 3.15619 6.69024 2.97619 7.00524C2.81594 6.93275 2.64207 6.89526 2.46619 6.89526C2.29031 6.89526 2.11644 6.93275 1.95619 7.00524C1.69021 7.14215 1.46291 7.3437 1.29516 7.59139C1.12742 7.83908 1.02461 8.12495 0.996191 8.42274C0.972318 8.58336 0.98472 8.74729 1.03249 8.9025C1.08025 9.0577 1.16217 9.20024 1.27222 9.31964C1.38228 9.43905 1.51768 9.53229 1.66848 9.59253C1.81928 9.65276 1.98166 9.67846 2.14369 9.66774C2.26823 9.68289 2.39415 9.68289 2.51869 9.66774C2.68634 9.601 2.84709 9.51811 2.99869 9.42024C3.03253 9.40731 3.0626 9.38613 3.08618 9.35862C3.10975 9.33112 3.12608 9.29816 3.13369 9.26274C3.40192 9.13303 3.60823 8.90284 3.7079 8.62207C3.80758 8.34129 3.79259 8.03254 3.66619 7.76274C3.59953 7.58362 3.50037 7.41835 3.37369 7.27524C3.67369 6.99024 3.98869 6.69024 4.29619 6.36774C4.46119 6.19524 4.62619 6.00774 4.78369 5.82774C4.94119 5.64774 5.09869 5.46024 5.27119 5.29524C5.44126 5.13299 5.62438 4.98499 5.81869 4.85274C5.81869 4.85274 5.81869 4.85274 5.86369 4.85274C5.97388 4.97882 6.11 5.07962 6.26274 5.14822C6.41549 5.21683 6.58125 5.25163 6.74869 5.25024C6.87323 5.26539 6.99915 5.26539 7.12369 5.25024C7.28836 5.20351 7.4489 5.14331 7.60369 5.07024C7.63578 5.05579 7.66403 5.03401 7.68618 5.00666C7.70832 4.9793 7.72374 4.94713 7.73119 4.91274C7.79931 4.88386 7.86459 4.84871 7.92619 4.80774C7.93522 4.8317 7.94925 4.85347 7.96736 4.87157C7.98547 4.88968 8.00723 4.90371 8.03119 4.91274C8.21726 5.03777 8.38838 5.18372 8.54119 5.34774C8.65261 5.47836 8.75533 5.61616 8.84869 5.76024C8.95369 5.91024 9.05119 6.05274 9.16369 6.19524C9.48172 6.66448 9.8326 7.1106 10.2137 7.53024C9.99027 7.79587 9.85179 8.12248 9.81619 8.46774C9.79214 8.62903 9.80467 8.79366 9.85285 8.94946C9.90103 9.10525 9.98363 9.24821 10.0945 9.36776C10.2055 9.48731 10.3418 9.58039 10.4936 9.64011C10.6453 9.69982 10.8086 9.72464 10.9712 9.71274C11.0932 9.7278 11.2167 9.7278 11.3387 9.71274C11.5034 9.66601 11.6639 9.60581 11.8187 9.53274C11.8508 9.51829 11.879 9.49651 11.9012 9.46916C11.9233 9.4418 11.9387 9.40963 11.9462 9.37524C12.2144 9.24553 12.4207 9.01534 12.5204 8.73457C12.6201 8.45379 12.6051 8.14504 12.4787 7.87524C12.4632 7.82837 12.4431 7.78315 12.4187 7.74024C12.9406 7.50517 13.3797 7.11838 13.6787 6.63024C13.8159 6.41204 13.9315 6.18094 14.0237 5.94024C14.1493 5.591 14.2471 5.23238 14.3162 4.86774C14.4056 4.10806 14.551 3.35601 14.7512 2.61774ZM15.0737 1.35774C15.1656 1.14133 15.33 0.963664 15.5387 0.85524C15.6057 0.816937 15.6804 0.794107 15.7574 0.788423C15.8344 0.782738 15.9116 0.794343 15.9835 0.822386C16.0554 0.85043 16.1202 0.894202 16.173 0.950497C16.2258 1.00679 16.2653 1.07419 16.2887 1.14774C16.3353 1.21839 16.3659 1.29831 16.3786 1.38197C16.3913 1.46563 16.3857 1.55105 16.3622 1.63233C16.3386 1.71361 16.2978 1.78882 16.2423 1.85277C16.1869 1.91672 16.1183 1.96789 16.0412 2.00274C15.9984 2.02018 15.9611 2.04893 15.9333 2.08592C15.9056 2.12291 15.8884 2.16675 15.8837 2.21274L15.7487 2.25024C15.6492 2.26514 15.5481 2.26514 15.4487 2.25024C15.3339 2.24037 15.2262 2.19078 15.144 2.11001C15.0619 2.02923 15.0105 1.92234 14.9987 1.80774C14.9817 1.65369 15.0077 1.49795 15.0737 1.35774ZM2.78119 8.85774C2.73837 8.87518 2.70109 8.90393 2.67334 8.94092C2.6456 8.97791 2.62844 9.02175 2.62369 9.06774H2.50369C2.40426 9.08286 2.30312 9.08286 2.20369 9.06774C2.0892 9.05844 1.98135 9.0102 1.8981 8.93105C1.81486 8.8519 1.76124 8.74662 1.74619 8.63274C1.75328 8.49917 1.78909 8.36871 1.85119 8.25024C1.94759 8.03674 2.1108 7.86038 2.31619 7.74774C2.38373 7.71213 2.45814 7.69147 2.53437 7.68715C2.6106 7.68282 2.68687 7.69494 2.758 7.72269C2.82913 7.75043 2.89347 7.79314 2.94664 7.84793C2.99982 7.90272 3.04059 7.96831 3.06619 8.04024C3.10638 8.11218 3.13092 8.1918 3.13819 8.27389C3.14547 8.35597 3.13532 8.43866 3.10841 8.51655C3.08151 8.59444 3.03845 8.66577 2.98206 8.72586C2.92567 8.78595 2.85722 8.83344 2.78119 8.86524V8.85774ZM7.40869 4.43274C7.36674 4.45146 7.33026 4.48056 7.3027 4.51731C7.27514 4.55406 7.25741 4.59723 7.25119 4.64274H7.13119C7.03176 4.65786 6.93062 4.65786 6.83119 4.64274C6.7167 4.63344 6.60885 4.5852 6.5256 4.50605C6.44236 4.4269 6.38874 4.32162 6.37369 4.20774C6.37276 4.05636 6.40881 3.90703 6.47869 3.77274C6.5773 3.56072 6.73993 3.38496 6.94369 3.27024C7.01123 3.23463 7.08564 3.21397 7.16187 3.20965C7.2381 3.20532 7.31437 3.21744 7.3855 3.24519C7.45663 3.27293 7.52097 3.31564 7.57414 3.37043C7.62732 3.42522 7.66809 3.49081 7.69369 3.56274C7.74351 3.63644 7.77587 3.72053 7.7883 3.80862C7.80073 3.8967 7.79291 3.98646 7.76543 4.07107C7.73795 4.15568 7.69153 4.23291 7.62972 4.29688C7.5679 4.36085 7.49231 4.40988 7.40869 4.44024V4.43274ZM11.6312 8.85774C11.5882 8.87604 11.5506 8.90488 11.5218 8.94159C11.4929 8.97829 11.4738 9.02168 11.4662 9.06774H11.3462C11.2468 9.08275 11.1456 9.08275 11.0462 9.06774C10.9317 9.05844 10.8238 9.0102 10.7406 8.93105C10.6574 8.8519 10.6037 8.74662 10.5887 8.63274C10.5878 8.48135 10.6238 8.33203 10.6937 8.19774C10.7923 7.98572 10.9549 7.80996 11.1587 7.69524C11.2262 7.65963 11.3006 7.63897 11.3769 7.63465C11.4531 7.63032 11.5294 7.64244 11.6005 7.67019C11.6716 7.69793 11.736 7.74064 11.7891 7.79543C11.8423 7.85022 11.8831 7.91581 11.9087 7.98774C11.9587 8.06095 11.9914 8.14456 12.0043 8.23226C12.0172 8.31996 12.01 8.40945 11.9833 8.49397C11.9566 8.57849 11.911 8.65583 11.85 8.72015C11.789 8.78446 11.7142 8.83408 11.6312 8.86524V8.85774Z" fill="#96999C"/>
</svg>
