<svg width="18" height="18" viewBox="0 0 18 18" fill="none" xmlns="http://www.w3.org/2000/svg">
<g clip-path="url(#clip0_63_10051)">
<path d="M8.4375 10.6875H10.6875V14.0625L14.0625 10.6875H16.3125C16.6109 10.6875 16.897 10.569 17.108 10.358C17.319 10.147 17.4375 9.86087 17.4375 9.5625V1.6875C17.4375 1.38913 17.319 1.10298 17.108 0.892005C16.897 0.681026 16.6109 0.5625 16.3125 0.5625H7.3125C7.01413 0.5625 6.72798 0.681026 6.517 0.892005C6.30603 1.10298 6.1875 1.38913 6.1875 1.6875" stroke="#999DA2" stroke-width="1.5" stroke-linecap="round" stroke-linejoin="round"/>
<path d="M1.125 5.0625C1.125 5.65924 1.36205 6.23153 1.78401 6.65349C2.20597 7.07545 2.77826 7.3125 3.375 7.3125C3.97174 7.3125 4.54403 7.07545 4.96599 6.65349C5.38795 6.23153 5.625 5.65924 5.625 5.0625C5.625 4.46576 5.38795 3.89347 4.96599 3.47151C4.54403 3.04955 3.97174 2.8125 3.375 2.8125C2.77826 2.8125 2.20597 3.04955 1.78401 3.47151C1.36205 3.89347 1.125 4.46576 1.125 5.0625Z" stroke="#999DA2" stroke-width="1.5" stroke-linecap="round" stroke-linejoin="round"/>
<path d="M6.1875 12.9375V11.25C6.1875 10.5041 5.89118 9.78871 5.36374 9.26126C4.83629 8.73382 4.12092 8.4375 3.375 8.4375C2.62908 8.4375 1.91371 8.73382 1.38626 9.26126C0.858816 9.78871 0.5625 10.5041 0.5625 11.25V12.9375H1.6875L2.25 17.4375H4.5L5.0625 12.9375H6.1875Z" stroke="#999DA2" stroke-width="1.5" stroke-linecap="round" stroke-linejoin="round"/>
<path d="M9 3.9375L10.6875 5.625L9 7.3125" stroke="#999DA2" stroke-width="1.5" stroke-linecap="round" stroke-linejoin="round"/>
<path d="M12.9375 5.625H15.1875" stroke="#999DA2" stroke-width="1.5" stroke-linecap="round" stroke-linejoin="round"/>
</g>
<defs>
<clipPath id="clip0_63_10051">
<rect width="18" height="18" fill="white"/>
</clipPath>
</defs>
</svg>
