<svg width="15" height="15" viewBox="0 0 15 15" fill="none" xmlns="http://www.w3.org/2000/svg">
<path d="M4.75193 0.518555L4.52497 0.9375H1.49892C0.94099 0.9375 0.490234 1.35645 0.490234 1.875C0.490234 2.39355 0.94099 2.8125 1.49892 2.8125H13.6031C14.1611 2.8125 14.6118 2.39355 14.6118 1.875C14.6118 1.35645 14.1611 0.9375 13.6031 0.9375H10.5771L10.3501 0.518555C10.1799 0.199219 9.83002 0 9.44861 0H5.65344C5.27203 0 4.92214 0.199219 4.75193 0.518555ZM13.6031 3.75H1.49892L2.16717 13.6816C2.21761 14.4229 2.87956 15 3.67705 15H11.425C12.2225 15 12.8844 14.4229 12.9349 13.6816L13.6031 3.75Z" fill="#EE335E"/>
</svg>
