<svg width="22" height="15" viewBox="0 0 22 15" fill="none" xmlns="http://www.w3.org/2000/svg">
<path d="M10.8698 0C7.96299 0 5.63537 1.23214 3.94093 2.69866C2.25728 4.15179 1.13124 5.89286 0.598805 7.08817C0.480086 7.35268 0.480086 7.64732 0.598805 7.91183C1.13124 9.10714 2.25728 10.8482 3.94093 12.3013C5.63537 13.7679 7.96299 15 10.8698 15C13.7766 15 16.1042 13.7679 17.7987 12.3013C19.4823 10.8449 20.6084 9.10714 21.1444 7.91183C21.2631 7.64732 21.2631 7.35268 21.1444 7.08817C20.6084 5.89286 19.4823 4.15179 17.7987 2.69866C16.1042 1.23214 13.7766 0 10.8698 0ZM5.68934 7.5C5.68934 6.22128 6.23514 4.99493 7.20666 4.09073C8.17819 3.18654 9.49586 2.67857 10.8698 2.67857C12.2438 2.67857 13.5614 3.18654 14.533 4.09073C15.5045 4.99493 16.0503 6.22128 16.0503 7.5C16.0503 8.77872 15.5045 10.0051 14.533 10.9093C13.5614 11.8135 12.2438 12.3214 10.8698 12.3214C9.49586 12.3214 8.17819 11.8135 7.20666 10.9093C6.23514 10.0051 5.68934 8.77872 5.68934 7.5ZM10.8698 5.35714C10.8698 6.53906 9.83731 7.5 8.56738 7.5C8.31195 7.5 8.06732 7.45982 7.83707 7.38951C7.63921 7.32924 7.40897 7.44308 7.41616 7.63728C7.42695 7.8683 7.46293 8.09933 7.53128 8.33036C8.02415 10.0446 9.92006 11.0625 11.762 10.6038C13.6039 10.1451 14.6976 8.38058 14.2047 6.66629C13.8054 5.27679 12.4851 4.34263 11.0173 4.28571C10.8087 4.27902 10.6863 4.48995 10.7511 4.67745C10.8266 4.89174 10.8698 5.11942 10.8698 5.35714Z" fill="#3E60AA"/>
</svg>
